/* XPM */ 
static const char * logo_xpm[] = {
"200 40 214 2",
"  	c None",
"! 	c #363636",
"# 	c #373737",
"$ 	c #3A3A3A",
"% 	c #393939",
"& 	c #383838",
"' 	c #313131",
"( 	c #575757",
") 	c #8A8A8A",
"* 	c #2E2E2E",
"+ 	c #BEBEBE",
", 	c #DEDEDE",
"- 	c #434343",
". 	c #343434",
"0 	c #2F2F2F",
"1 	c #696969",
"2 	c #F0F0F0",
"3 	c #F2F2F2",
"4 	c #9B9B9B",
"5 	c #353535",
"6 	c #C9C9C9",
"7 	c #F1F1F1",
"8 	c #E7E7E7",
"9 	c #4C4C4C",
": 	c #333333",
"; 	c #303030",
"< 	c #787878",
"= 	c #EEEEEE",
"> 	c #EFEFEF",
"? 	c #ADADAD",
"@ 	c #2D2D2D",
"A 	c #323232",
"B 	c #D7D7D7",
"C 	c #EDEDED",
"D 	c #E9E9E9",
"E 	c #5B5B5B",
"F 	c #8C8C8C",
"G 	c #ECECEC",
"H 	c #E0E0E0",
"I 	c #D3D3D3",
"J 	c #BABABA",
"K 	c #3F3F3F",
"L 	c #EAEAEA",
"M 	c #E8E8E8",
"N 	c #969696",
"O 	c #616161",
"P 	c #E6E6E6",
"Q 	c #9F9F9F",
"R 	c #D1D1D1",
"S 	c #3E3E3E",
"T 	c #2C2C2C",
"U 	c #B2B2B2",
"V 	c #C8C8C8",
"W 	c #505050",
"X 	c #DFDFDF",
"Y 	c #E2E2E2",
"Z 	c #828282",
"[ 	c #7A7A7A",
"] 	c #292929",
"^ 	c #3D3D3D",
"_ 	c #B1B1B1",
"` 	c #E5E5E5",
"a 	c #C2C2C2",
"b 	c #3B3B3B",
"c 	c #A4A4A4",
"d 	c #E4E4E4",
"e 	c #494949",
"f 	c #2B2B2B",
"g 	c #646464",
"h 	c #B0B0B0",
"i 	c #D4D4D4",
"j 	c #E3E3E3",
"k 	c #DDDDDD",
"l 	c #707070",
"m 	c #464646",
"n 	c #DADADA",
"o 	c #E1E1E1",
"p 	c #B9B9B9",
"q 	c #949494",
"r 	c #6F6F6F",
"s 	c #F3F3F3",
"t 	c #F7F7F7",
"u 	c #F5F5F5",
"v 	c #D9D9D9",
"w 	c #727272",
"x 	c #5A5A5A",
"y 	c #818181",
"z 	c #4B4B4B",
"{ 	c #848484",
"| 	c #909090",
"} 	c #454545",
"~ 	c #4E4E4E",
" !	c #6D6D6D",
"!!	c #919191",
"#!	c #CFCFCF",
"$!	c #B4B4B4",
"%!	c #8D8D8D",
"&!	c #D5D5D5",
"'!	c #757575",
"(!	c #555555",
")!	c #FBFBFB",
"*!	c white",
"+!	c #FAFAFA",
",!	c #F8F8F8",
"-!	c #F9F9F9",
".!	c #FEFEFE",
"0!	c #515151",
"1!	c #979797",
"2!	c #BFBFBF",
"3!	c #4F4F4F",
"4!	c #B5B5B5",
"5!	c #C0C0C0",
"6!	c #484848",
"7!	c #9A9A9A",
"8!	c #D6D6D6",
"9!	c #CACACA",
":!	c #ACACAC",
";!	c #595959",
"<!	c #414141",
"=!	c #A1A1A1",
">!	c #C4C4C4",
"?!	c #DCDCDC",
"@!	c #747474",
"A!	c #585858",
"B!	c #767676",
"C!	c #858585",
"D!	c #959595",
"E!	c #FDFDFD",
"F!	c #424242",
"G!	c #C1C1C1",
"H!	c #A7A7A7",
"I!	c #474747",
"J!	c #BDBDBD",
"K!	c #CDCDCD",
"L!	c #D0D0D0",
"M!	c #7D7D7D",
"N!	c #ABABAB",
"O!	c #FCFCFC",
"P!	c #F4F4F4",
"Q!	c #636363",
"R!	c #D2D2D2",
"S!	c #A6A6A6",
"T!	c #5D5D5D",
"U!	c #F6F6F6",
"V!	c #CECECE",
"W!	c #525252",
"X!	c #B3B3B3",
"Y!	c #A3A3A3",
"Z!	c #3C3C3C",
"[!	c #878787",
"]!	c #C6C6C6",
"^!	c #6E6E6E",
"_!	c #7B7B7B",
"`!	c #737373",
"a!	c #AAAAAA",
"b!	c #CCCCCC",
"c!	c #606060",
"d!	c #C5C5C5",
"e!	c #7F7F7F",
"f!	c #A0A0A0",
"g!	c #DBDBDB",
"h!	c #282828",
"i!	c #2A2A2A",
"j!	c #252525",
"k!	c #4D4D4D",
"l!	c #8F8F8F",
"m!	c #7C7C7C",
"n!	c #808080",
"o!	c #777777",
"p!	c #7E7E7E",
"q!	c #545454",
"r!	c #656565",
"s!	c #8B8B8B",
"t!	c #A9A9A9",
"u!	c #444444",
"v!	c #B7B7B7",
"w!	c #797979",
"x!	c #D8D8D8",
"y!	c #676767",
"z!	c #8E8E8E",
"{!	c #535353",
"|!	c #898989",
"}!	c #626262",
"~!	c #9E9E9E",
" #	c #868686",
"!#	c #A2A2A2",
"##	c #BBBBBB",
"$#	c #5C5C5C",
"%#	c #9C9C9C",
"&#	c #A8A8A8",
"'#	c #EBEBEB",
"(#	c #666666",
")#	c #686868",
"*#	c #5F5F5F",
"+#	c #4A4A4A",
",#	c #717171",
"-#	c #6A6A6A",
".#	c #838383",
"0#	c #C3C3C3",
"1#	c #989898",
"2#	c #A5A5A5",
"3#	c #5E5E5E",
"4#	c #999999",
"5#	c #AEAEAE",
"6#	c #6B6B6B",
"7#	c #565656",
"8#	c #404040",
"9#	c #CBCBCB",
":#	c #B8B8B8",
";#	c #9D9D9D",
"<#	c #C7C7C7",
"=#	c #BCBCBC",
">#	c #B6B6B6",
"?#	c #272727",
"! ! ! ! ! ! ! ! ! ! ! ! ! ! ! ! ! ! ! ! # ! $ # ! ! ! ! ! ! ! ! ! ! ! ! ! ! ! ! ! ! ! ! ! ! ! ! ! ! ! ! ! ! ! ! ! ! ! ! ! ! ! ! ! ! ! ! ! ! ! ! ! ! ! ! ! ! ! ! ! ! ! ! ! ! ! ! ! ! ! ! ! ! ! ! ! ! ! ! ! ! ! ! ! ! ! ! ! ! ! ! ! ! ! ! ! ! ! ! ! ! ! ! ! ! ! ! ! ! ! ! ! ! ! ! ! ! ! ! ! ! ! ! ! ! ! ! ! ! ! ! ! ! ! ! ! ! ! ! ! ! ! ! ! ! ! ! ! ! ! ! ! ! ! ! ! ! ! ! ! ! ! ! ! ! ! ! ! ! ! ! ! ! ! ! ! ! ! ! ",
"% % % % % % % % % % % % % % % % % % % & ' ( ) * ! % % % % % % % % % % % % % % % % % % % % % % % % % % % % % % % % % % % % % % % % % % % % % % % % % % % % % % % % % % % % % % % % % % % % % % % % % % % % % % % % % % % % % % % % % % % % % % % % % % % % % % % % % % % % % % % % % % % % % % % % % % % % % % % % % % % % % % % % % % % % % % % % % % % % % % % % % % % % % % % % % % % % % % % % % % % % % % % ",
"! ! ! ! ! ! ! ! ! ! ! ! ! ! ! ! ! ! ! ! * + , - . ! ! ! ! ! ! ! ! ! ! ! ! ! ! ! ! ! ! ! ! ! ! ! ! ! ! ! ! ! ! ! ! ! ! ! ! ! ! ! ! ! ! ! ! ! ! ! ! ! ! ! ! ! ! ! ! ! ! ! ! ! ! ! ! ! ! ! ! ! ! ! ! ! ! ! ! ! ! ! ! ! ! ! ! ! ! ! ! ! ! ! ! ! ! ! ! ! ! ! ! ! ! ! ! ! ! ! ! ! ! ! ! ! ! ! ! ! ! ! ! ! ! ! ! ! ! ! ! ! ! ! ! ! ! ! ! ! ! ! ! ! ! ! ! ! ! ! ! ! ! ! ! ! ! ! ! ! ! ! ! ! ! ! ! ! ! ! ! ! ! ! ! ! ! ! ",
"% % % % % % % % % % % % % % % % % % & 0 1 2 3 4 * ! $ % % % % % % % % % % % % % % % % % % % % % % % % % % % % % % % % % % % % % % % % % % % % % % % % % % % % % % % % % % % % % % % % % % % % % % % % % % % % % % % % % % % % % % % % % % % % % % % % % % % % % % % % % % % % % % % % % % % % % % % % % % % % % % % % % % % % % % % % % % % % % % % % % % % % % % % % % % % % % % % % % % % % % % % % % % % % % ",
"& & & & & & & & & & & & & & & & & # 5 ! 6 7 7 8 9 : # & & & & & & & & & & & & & & & & & & & & & & & & & & & & & & & & & & & & & & & & & & & & & & & & & & & & & & & & & & & & & & & & & & & & & & & & & & & & & & & & & & & & & & & & & & & & & & & & & & & & & & & & & & & & & & & & & & & & & & & & & & & & & & & & & & & & & & & & & & & & & & & & & & & & & & & & & & & & & & & & & & & & & & & & & & & & & ",
"# # # # # # # # # # # # # # # # # & ; < = > > > ? @ # & # # # # # # # # # # # # # # # # # # # # # # # # # # # # # # # # # # # # # # # # # # # # # # # # # # # # # # # # # # # # # # # # # # # # # # # # # # # # # # # # # # # # # # # # # # # # # # # # # # # # # # # # # # # # # # # # # # # # # # # # # # # # # # # # # # # # # # # # # # # # # # # # # # # # # # # # # # # # # # # # # # # # # # # # # # # # ",
"% % % % % % % % % % % % % % % % % A & B = C C C D E 0 # % % % % % % % % % % % % % % % % % % % % % % % % % % % % % % % % % % % % % % % % % % % % % % % % % % % % % % % % % % % % % % % % % % % % % % % % % % % % % % % % % % % % % % % % % % % % % % % % % % % % % % % % % % % % % % % % % % % % % % % % % % % % % % % % % % % % % % % % % % % % % % % % % % % % % % % % % % % % % % % % % % % % % % % % % % % % ",
"! ! ! ! ! ! ! ! ! ! ! ! ! ! ! ! # 0 F C G H I G G J : ! ! ! ! ! ! ! ! ! ! ! ! ! ! ! ! ! ! ! ! ! ! ! ! ! ! ! ! ! ! ! ! ! ! ! ! ! ! ! ! ! ! ! ! ! ! ! ! ! ! ! ! ! ! ! ! ! ! ! ! ! ! ! ! ! ! ! ! ! ! ! ! ! ! ! ! ! ! ! ! ! ! ! ! ! ! ! ! ! ! ! ! ! ! ! ! ! ! ! ! ! ! ! ! ! ! ! ! ! ! ! ! ! ! ! ! ! ! ! ! ! ! ! ! ! ! ! ! ! ! ! ! ! ! ! ! ! ! ! ! ! ! ! ! ! ! ! ! ! ! ! ! ! ! ! ! ! ! ! ! ! ! ! ! ! ! ! ! ! ! ! ! ! ",
"% % % % % % % % % % % % % % % % ' K , L M N O P L P 1 * # % % % % % % % % % % % % % % % % % % % % % % % % % % % % % % % % % % % % % % % % % % % % % % % % % % % % % % % % % % % % % % % % % % % % % % % % % % % % % % % % % % % % % % % % % % % % % % % % % % % % % % % % % % % % % % % % % % % % % % % % % % % % % % % % % % % % % % % % % % % % % % % % % % % % % % % % % % % % % % % % % % % % % % % % % % % ",
"# # # # # # # # # # # # # # ! ! 0 Q D M R S T U M M V ! 5 ! # # # # # # # # # # # # # # # # # # # # # # # # # # # # # # # # # # # # # # # # # # # # # # # # # # # # # # # # # # # # # # # # # # # # # # # # # # # # # # # # # # # # # # # # # # # # # # # # # # # # # # # # # # # # # # # # # # # # # # # # # # # # # # # # # # # # # # # # # # # # # # # # # # # # # # # # # # # # # # # # # # # # # # # # # # ",
"% % % % % % % % % % % $ $ % # ; W X 8 Y Z * ; ( X 8 8 [ @ 5 % $ $ $ % % % % % % % % % % % % % % % % % % % % % % % % % % % % % % % % % % % % % % % % % % % % % % % % % % % % % % % % % % % % % % % % % % % % % % % % % % % % % % % % % % % % % % % % % % % % % % % % % % % % % % % % % % % % % % % % % % % % % % % % % % % % % % % % % % % % % % % % % % % % % % % % % % % % % % % % % % % % % % % % % % % % % % ",
"% % % % % % # 5 5 . A A 0 T ] ^ _ P ` a b : ! @ c d ` I e T f * ' A : . 5 ! % % % % % % % % % % % % % % % % % % % % % % % % % % % % % % % % % % % % % % % % % % % % % % % % % % % % % % % % % % % % % % % % % % % % % % % % % % % % % % % % % % % % % % % % % % % % % % % % % % % % % % % % % % % % % % % % % % % % % % % % % % % % % % % % % % % % % % % % % % % % % % % % % % % % % % % % % % % % % % % % % % ",
"! ! ! % # 5 A ; ; ! - g ) h i Y d j k l ; # # . m n j j o n p q r 9 & A 0 A . ! % # ! ! ! ! s t t t t t u v w # ! ! ! ! ! ! ! ! ! ! ! x y 1 ! ! ! ! ! ! ! ! ! ! ! ! ! ! ! ! ! ! ! z t t t { ! ! ! | t t t } ! ! ! ! ! ! ! ! ! ! ! ! ! ! ! ! ! ! ! ! ! ! ! ! ! ! ! ! ! ! ! ! ! ! ! ! ! ! ! ! ! ! ! ! ! ! ! ! ! ! ! ! ! ! ! ! ! ! ! ! ! ! ! ! ! ! ! ! ! ! ! ! ! ! ! ! ! ! ! ! ! ! ! ! ! ! ! ! ! ! ! ! ! ! ! ! ! ! ",
"% % & . K ~  !!!U #!d d Y o o o o o $!' A % % 5 @ %!H o o o o o j d &!J 4 '!(!- 5 ! % % % % )!*!+!,!,!-!.!*!3 0!% % % % % % % % % % % 1!*!2!% % % % % % % % % % % % % % % % % % % 3!*!*!*!4!$ % $ 5!*!*!*!6!% % % % % % % % % % % % % % % % % % % % % % % % % % % % % % % % % % % % % % % % % % % % % % % % % % % % % % % % % % % % % % % % % % % % % % % % % % % % % % % % % % % % % % % % % % % % % % % % % % ",
"! ! # % 7!k Y o H H H H H H k 8!9!:!;!A # ! ! # 5 <!=!>!8!?!H H H H H H H o , 4!<!# ! ! ! ! )!*!@!( ( A!B!> *!C!! ! ! ! ! ! ! ! ! ! ! D!*!+ ! ! ! ! ! ! ! ! ! ! ! ! ! ! ! ! ! ! ! 9 *!*!E!v S ! F!H E!*!*!} ! ! ! ! ! ! ! ! ! ! ! ! ! ! ! ! ! ! ! ! ! ! ! ! ! ! ! ! ! ! ! ! ! ! ! ! ! ! ! ! ! ! ! ! ! ! ! ! ! ! ! ! ! ! ! ! ! ! ! ! ! ! ! ! ! ! ! ! ! ! ! ! ! ! ! ! ! ! ! ! ! ! ! ! ! ! ! ! ! ! ! ! ! ! ! ! ! ! ",
"% % & : & :!k , , k R G!H!{ g I!' 0 ' . % % % % 5 A 0 * K E [ Q J!K!k , , ?!J!e ' # % % % % )!*!E % % % b a *!N % % W h P 7 L!M!^ % N!-!*!O!C % @!P!8!Q!R!S!% $ w V C = 6 '!b % % 3!*!*!n s ( % T!U!n *!*!6!% b @!V!> D $!( $ % % W!X!` 3 X Y!e % % Z![!i 2 G ]!^!$ % % W!U 8 2 #!_!Z!% % P P!`!a!P 7 b!c!% % $ c!d!2 k Z H!P!c % % e a!d 3 i C!K % % R!P!e!f!Y W!% % % % % % % % % % % % % % % % % % % % % % % ",
"& & & % A # X!g!?!?!7!f h!* ' : # & $ % & & & & & $ % # . A 0 i!j!1 k ?!?!2!~ 0 & % & & & & )!*!x & & & k!k *!`!& 6!k *!L X +!E!l!& 1!M *!7 V!& B!*!= X *!:!& m!)!*!= C *!O!n!& & k!*!*!:!*!o!& p!*!:!*!*!I!& M!-!+!H D *!P q!& } g!*!= o 2 *!V % & F *!-!d P O!,!r!& e H *!D H +!O!s!& & 2 *!L +!7 E!*!?!} & A!D *!,!3 O!j *!t!& u!#!*!G , -!E!Q % & g!*!L!E!P!W!& & & & & & & & & & & & & & & & & & & & & & & ",
"& & & # ! A <!v!v n 8!w!T 5 # ! & & & & & & & & & & & & # ! ! 0 k!K!n n ]!(!0 5 # & & & & & )!*!, x!x!x!P *!>!K & 1!.!&!W F!) O!2 e & N *!2!& & B!*!*!K!s!y!- o *!$!0!W h *!d - & k!*!*!M!*!c & N!*!e!*!*!I!u!g!.!N - k!b!*!h & ^!O!D ( u!;!B P!W & 8!*!D!m e N u H!& 4 *!R!3!- z!E!C 6!& 2 *!R Q!{!|!+!+!}!% _ *!X O {!~!*!*!t!&  #E!Y q!<!m!)!-!W!& g!*!3 !#y - & & & & & & & & & & & & & & & & & & & & & & & ",
"% % % % $ # 0 - ##x!x!B  !@ . % % % % % % % % % % % % % % ! ; 6!9!v x!]!$#@ 5 $ % % % % % % )!*!*!*!*!*!*!s B!$ $ V!*!L!%#%#&#U!E!@!% 1!*!2!% % o!*!'#3!% % (#-!> W!% % 0!C -!)#% 3!*!*!( ,!#!- R!-!;!*!*!6!*#+!O!N!%#%#V *!8 $ 1 +!O!L!7!(#~ m Z!% V!*!'#U M!{!+#<!$ R!*!V!%#%#a!t O!,#% 2 *!,#% % ^ C *!-#S D *!w!% % Z!x!*!a!$ + *!v %#%#Y!s *!.#% g!*!%#$ % % % % % % % % % % % % % % % % % % % % % % % % % ",
"! ! ! ! ! ! # A m 5!8!8!R!)#; # ! ! ! ! ! ! ! ! ! ! ! ! # : - ]!B 8!]!}!0 # ! ! ! ! ! ! ! ! )!*!q M!M!Z 0#*!D S Z!g!*!*!*!*!*!*!*!{ ! D!*!+ ! ! '!*!X # ! ! r .!d & ! ! & H .!`!! 9 *!*!m 8!u q!P!&!z *!*!} -#*!*!*!*!*!*!*!,!% $ 1#Y )!*!*!G 2#b ! 3#K!7 *!*!+!L!3#^ X *!*!*!*!*!*!*!n!! 2 *!Q!! ! ! G *!)#Z!E!*!W!! ! ! h *!t!$ b!*!*!*!*!*!*!*!N ! n *![ ! ! ! ! ! ! ! ! ! ! ! ! ! ! ! ! ! ! ! ! ! ! ! ! ! ! ",
"% % % % % % % ! * ~ a i i 9!3#@ 5 % % % % % % % % % % # ; Z!J &!i 9!y!@ : % % % % % % % % % )!*!E % % % {!E!*!9 Z!8!*!? r!r!r!r!r!z % 1!*!2!% % o!*!X % % % 1 +!G z % % +#D )! !% 3!*!*!F!h *!4#*!5#e *!*!6!r!E!-!@!r!r!r!r!Q!$ % $ 6!)#4#L!O!*!B!% % S A!n!v!C *!R Z!n *!a!r!r!r!r!r!+#% 2 *!(#% % % G *!-#K P!*!6#% % $ 6 *!a!b ]!*!J r!r!r!r!r!~ % g!*!_!% % % % % % % % % % % % % % % % % % % % % % % % % % ",
"# # # # # # # # & ; 7#0#R!I 9!q!: ! # # # # # # # # ! ! Z!$!i R!6 ,#* ! & # # # # # # # # # )!*!;!# # # +#.!*!{!# t!*!]!<!% $#J!+ W!# D!*!a % # '!*!X # # # I!M .!~!8#K %#E!'#6!# 9 *!*!K n!*!C *!e!m *!*!m z 8 O!e!$ Z!%!a =!# q n S!S $ I!8!*!{ W!L!R!$#b ^  #*!o # 5#*!a <!% *#+ J!0!# 2 *!g # # # G *!)#% 9#*!K!6!K M!O!*!t!# 1#*!i u!% {!##a E # n *!w!# # # # # # # # # # # # # # # # # # # # # # # # # # ",
"% % % % % % % % & 5 * x ]!L!R f!* # % % % % % % % % & A `!I L!V B!@ . ! % % % % % % % % % % )!*!E % % % 9 E!*!x % ( G *!, 6 3 *!:#$ % ) *!P!G!% o!*!X % % % % z!E!.!j Y .!E!| % % ~ *!*!<!$#u *!U!E 6!*!*!6!% 1!E!,!K!i .!u w % r t .!o V!Y .!3 ~ K 9#*!s R!I U!*!;#% ;!> *!k 6 s .!$!$ % 2 *!(#% % % G *!-#% '!,!*!s M E!U!*!a!% W Y *!j <#> *!]!^ % g!*!_!% % % % % % % % % % % % % % % % % % % % % % % % % % ",
"% % % % % % % % % $ 5 h!1##!#!|!@ # % % % % % % % % % A 3#L!#!U ' A $ % % % % % % % % % % % )!*!E % % % } P *!p!% % y!K!U!O!j ;#u!% % ~ B O!C % o!*!X % % % % b F ?!+!+!?!F Z!% % ~ *!*!<!- o *!X } 6!*!*!6!% K D!j O!U!K!w $ % b m!I s .!U!R!l % % 3!4!M )!E!M S!F!% % 1 V!U!O!Y 4 - % % 2 *!(#% % % G *!-#% Z! #Y E!> &#4!*!a!% % T!<#P!E!P 2#e % % g!*!_!% % % % % % % % % % % % % % % % % % % % % % % % % % ",
"# # # # # # # # # # # T &#K!K!@!; ! # # # # # # # # # . +#V!K!p b 5 # # # # # # # # # # # # I!I!$ # # # # u!I!K # # # Z!} I!8## # # # # S I!u!# Z!I!} # # # # # # K m m K # # # # & I!I!# # u!I!u!# & I!I!& # # # 8#I!} Z!# # # # # Z!u!I!} ^ # # # # & <!m I!<!& # # # # Z!} I!8## # # # m I!$ # # # m I!b & g r!( I!- $ G!*!f!# # # b } I!<!& # # # u!I!Z!# # # # # # # # # # # # # # # # # # # # # # # # # # ",
"% % % % % % % % % % 5 h!=#9#6 *#0 & % % ! . . 5 % % % : S a 9#a - A % % % % % % % % % % % % % % % % % % % % % % % % % % % % % % % % % % % % % % % % % % % % % % % % % % % % % % % % % % % % % % % % % % % % % % % % % % % % % % % % % % % % % % % % % % % % % % % % % % % % % % % % % % % % % % % % % % % % S d *!X '!y!f!E!+! !% % % % % % % % % % % % % % % % % % % % % % % % % % % % % % % % % % % % % % % % ",
"! ! ! ! ! ! ! ! ! ! 5 ; V 9!d!~ . ! # ! ' ! - 0 . # ! ! & >#9!]!0!: ! ! ! ! ! ! ! ! ! ! ! ! ! ! ! ! ! ! ! ! ! ! ! ! ! ! ! ! ! ! ! ! ! ! ! ! ! ! ! ! ! ! ! ! ! ! ! ! ! ! ! ! ! ! ! ! ! ! ! ! ! ! ! ! ! ! ! ! ! ! ! ! ! ! ! ! ! ! ! ! ! ! ! ! ! ! ! ! ! ! ! ! ! ! ! ! ! ! ! ! ! ! ! ! ! ! ! ! ! ! ! ! ! ! ! ! ! r M *!*!*!*!U!4#$ ! ! ! ! ! ! ! ! ! ! ! ! ! ! ! ! ! ! ! ! ! ! ! ! ! ! ! ! ! ! ! ! ! ! ! ! ! ! ! ! ",
"% % % % % % % % % % A K V V 5!b ; A @ 5 B!J!0#l!F!@ ; A * t!V ]!}!0 & % % % % % % % % % % % % % % % % % % % % % % % % % % % % % % % % % % % % % % % % % % % % % % % % % % % % % % % % % % % % % % % % % % % % % % % % % % % % % % % % % % % % % % % % % % % % % % % % % % % % % % % % % % % % % % % % % % % % $ z M!4 ;#|!7#Z!% % % % % % % % % % % % % % % % % % % % % % % % % % % % % % % % % % % % % % % % % ",
"# # # # # # # # # & . q!V ]!:#f T 8#Z >!9!]!]!<#V N 0!0 ?#1!]!]!B!; & # # # # # # # # # # # # # # # # # # # # # # # # # # # # # # # # # # # # # # # # # # # # # # # # # # # # # # # # # # # # # # # # # # # # # # # # # # # # # # # # # # # # # # # # # # # # # # # # # # # # # # # # # # # # # # # # # # # # # # # # # # # # # # # # # # # # # # # # # # # # # # # # # # # # # # # # # # # # # # # # # # # # # ",
"& & & & & & & & & & A (#]!>!H!8#) G!V >!>!0#0#>!>!d!0#;#W Z d!>![!* # & & & & & & & & & & & & & & & & & & & & & & & & & & & & & & & & & & & & & & & & & & & & & & & & & & & & & & & & & & & & & & & & & & & & & & & & & & & & & & & & & & & & & & & & & & & & & & & & & & & & & & & & & & & & & & & & & & & & & & & & & & & & & & & & & & & & & & & & & & & & & & & & & & & & & & & & & & & & & & & & & & & & & ",
"% % % % % % % % % # * w!0#0#2!G!d!0#0#5!h '!)#t!5!0#0#0#a 5!0#0#q * 5 % % % % % % % % % % % % % % % % % % % % % % % % % % % % % % % % % % % % % % % % % % % % % % % % % % % % % % % % % % % % % % % % % % % % % % % % % % % % % % % % % % % % % % % % % % % % % % % % % % % % % % % % % % % % % % % % % % % % % % % % % % % % % % % % % % % % % % % % % % % % % % % % % % % % % % % % % % % % % % % % % % % % % ",
"! ! ! ! ! ! ! ! ! # 0 %!a G!G!G!G!J!c  !& @ * ; 3#~!=#G!G!G!G!G!c : # ! ! ! ! ! ! ! ! ! ! ! ! ! ! ! ! ! ! ! ! ! ! ! ! ! ! ! ! ! ! ! ! ! ! ! ! ! ! ! ! ! ! ! ! ! ! ! ! ! ! ! ! ! ! ! ! ! ! ! ! ! ! ! ! ! ! ! ! ! ! ! ! ! ! ! ! ! ! ! ! ! ! ! ! ! ! ! ! ! ! ! ! ! ! ! ! ! ! ! ! ! ! ! ! ! ! ! ! ! ! ! ! ! ! ! ! ! ! ! ! ! ! ! ! ! ! ! ! ! ! ! ! ! ! ! ! ! ! ! ! ! ! ! ! ! ! ! ! ! ! ! ! ! ! ! ! ! ! ! ! ! ! ! ! ! ",
"% % % % % % % % % ! i!f!5!5!5!##~!g 5 T ' . . A * 0 7#q ##2!5!5!U : : % % % % % % % % % % % % % % % % % % % % % % % % % % % % % % % % % % % % % % % % % % % % % % % % % % % % % % % % % % % % % % % % % % % % % % % % % % % % % % % % % % % % % % % % % % % % % % % % % % % % % % % % % % % % % % % % % % % % % % % % % % % % % % % % % % % % % % % % % % % % % % % % % % % % % % % % % % % % % % % % % % % % % ",
"! ! ! ! ! ! ! ! ! ! ' :!+ :#4 E : ; 5 & # ! ! ! & ! ' ; ~ z!v!+ p K 5 ! ! ! ! ! ! ! ! ! ! ! # # # # # # # # # # # # # # # # # # # # # # # # # # # # # # # # # # # # # # # # # # # # # # # # # # # # # # # # # # # # # # # # # # # # # # # # # # # # # # # # # # # # # # # # # # # # # # # # # # # # # # # # # # # # # # # # # # # # # # # # # # # # # # # # # # # # # # # # # # # # # # # # # # # # # # # # # # ",
"% % % % % % % % % ! Z!a!| {!@ 0 : 5 # % % % % % % % 5 : ' f m  #5#W . % % % % % % % % % % % % % % % % % % % % % % % % % % % % % % % % % % % % % % % % % % % % % % % % % % % % % % % % % % % % % % % % % % % % % % % % % % % % % % % % % % % % % % % % % % % % % % % % % % % % % % % % % % % % % % % % % % % % % % % % % % % % % % % % % % % % % % % % % % % % % % % % % % % % % % % % % % % % % % % % % % % % % ",
"& & & & & & & & & & ^ 0!; ; 5 $ % & & & & & & & & & & & $ # ' @ m m ! % & & & & & & & & & & % % % % % % % % % % % % % % % % % % % % % % % % % % % % % % % % % % % % % % % % % % % % % % % % % % % % % % % % % % % % % % % % % % % % % % % % % % % % % % % % % % % % % % % % % % % % % % % % % % % % % % % % % % % % % % % % % % % % % % % % % % % % % % % % % % % % % % % % % % % % % % % % % % % % % % % % % % ",
"# # # # # # # # # ! # ! # 5 ! # # # # # # # # # # # # # # # 5 ! ! # # # # # # # # # # # # # ! ! ! ! ! ! ! ! ! ! ! ! ! ! ! ! ! ! ! ! ! ! ! ! ! ! ! ! ! ! ! ! ! ! ! ! ! ! ! ! ! ! ! ! ! ! ! ! ! ! ! ! ! ! ! ! ! ! ! ! ! ! ! ! ! ! ! ! ! ! ! ! ! ! ! ! ! ! ! ! ! ! ! ! ! ! ! ! ! ! ! ! ! ! ! ! ! ! ! ! ! ! ! ! ! ! ! ! ! ! ! ! ! ! ! ! ! ! ! ! ! ! ! ! ! ! ! ! ! ! ! ! ! ! ! ! ! ! ! ! ! ! ! ! ! ! ! ! ! ! ! ! ! ! ",
"% % % % % % % % % % % % % % % % % % % % % % % % % % % % % % % % % % % % % % % % % % % % % % % % % % % % % % % % % % % % % % % % % % % % % % % % % % % % % % % % % % % % % % % % % % % % % % % % % % % % % % % % % % % % % % % % % % % % % % % % % % % % % % % % % % % % % % % % % % % % % % % % % % % % % % % % % % % % % % % % % % % % % % % % % % % % % % % % % % % % % % % % % % % % % % % % % % % % % % % % ",
"! ! ! ! ! ! ! ! ! ! ! ! ! ! ! ! ! ! ! ! ! ! ! ! ! ! ! ! ! ! ! ! ! ! ! ! ! ! ! ! ! ! ! ! ! ! ! ! ! ! ! ! ! ! ! ! ! ! ! ! ! ! ! ! ! ! ! ! ! ! ! ! ! ! ! ! ! ! ! ! ! ! ! ! ! ! ! ! ! ! ! ! ! ! ! ! ! ! ! ! ! ! ! ! ! ! ! ! ! ! ! ! ! ! ! ! ! ! ! ! ! ! ! ! ! ! ! ! ! ! ! ! ! ! ! ! ! ! ! ! ! ! ! ! ! ! ! ! ! ! ! ! ! ! ! ! ! ! ! ! ! ! ! ! ! ! ! ! ! ! ! ! ! ! ! ! ! ! ! ! ! ! ! ! ! ! ! ! ! ! ! ! ! ! ! ! ! ! ! ! ",
"% % % % % % % % % % % % % % % % % % % % % % % % % % % % % % % % % % % % % % % % % % % % % % % % % % % % % % % % % % % % % % % % % % % % % % % % % % % % % % % % % % % % % % % % % % % % % % % % % % % % % % % % % % % % % % % % % % % % % % % % % % % % % % % % % % % % % % % % % % % % % % % % % % % % % % % % % % % % % % % % % % % % % % % % % % % % % % % % % % % % % % % % % % % % % % % % % % % % % % % % "};
