/* XPM */ 
static const unsigned char * star_xpm[] = {
"16 16 87 1",
" 	c None",
"!	c black",
"#	c #222222",
"$	c #515151",
"%	c #090909",
"&	c #B0B0B0",
"'	c #AEAEAE",
"(	c #565656",
")	c #EDEDED",
"*	c #EBEBEB",
"+	c #545454",
",	c #010101",
"-	c #B5B5B5",
".	c #A7A7A7",
"0	c #AAAAAA",
"1	c #B4B4B4",
"2	c #020202",
"3	c #2C2C2C",
"4	c #404040",
"5	c #595959",
"6	c #919191",
"7	c #E5E5E5",
"8	c #424242",
"9	c #454545",
":	c #E6E6E6",
";	c #8E8E8E",
"<	c #1B1B1B",
"=	c #6C6C6C",
">	c #C0C0C0",
"?	c #CDCDCD",
"@	c #DADADA",
"A	c #D4D4D4",
"B	c #7B7B7B",
"C	c #242424",
"D	c #7E7E7E",
"E	c #D5D5D5",
"F	c #CECECE",
"G	c #676767",
"H	c #171717",
"I	c #3B3B3B",
"J	c #C1C1C1",
"K	c #393939",
"L	c #212121",
"M	c #1F1F1F",
"N	c #1C1C1C",
"O	c #1E1E1E",
"P	c #3A3A3A",
"Q	c #BCBCBC",
"R	c #383838",
"S	c #323232",
"T	c #C6C6C6",
"U	c #9B9B9B",
"V	c #1D1D1D",
"W	c #1A1A1A",
"X	c #9D9D9D",
"Y	c #303030",
"Z	c #3E3E3E",
"[	c #D3D3D3",
"]	c #7C7C7C",
"^	c #7F7F7F",
"_	c #CFCFCF",
"`	c #111111",
"a	c #989898",
"b	c #939393",
"c	c #0F0F0F",
"d	c #A9A9A9",
"e	c #696969",
"f	c #151515",
"g	c #6F6F6F",
"h	c #141414",
"i	c #6D6D6D",
"j	c #A4A4A4",
"k	c #333333",
"l	c #A8A8A8",
"m	c #8D8D8D",
"n	c #BFBFBF",
"o	c #8F8F8F",
"p	c #A5A5A5",
"q	c #2F2F2F",
"r	c #BABABA",
"s	c #3C3C3C",
"t	c #C2C2C2",
"u	c #B6B6B6",
"v	c #4B4B4B",
"w	c #727272",
"x	c #353535",
"y	c #474747",
"       ##       ",
"       $$       ",
"      %&'%      ",
"      ()*+      ",
"     ,-.012     ",
"  3456789:;543  ",
"<=>?@ABCCDE@F>GH",
" IJAKLM  NOPEQR ",
"  STUV    WXJY  ",
"   Z[]    ^_I   ",
"   `a;    bbc   ",
"   MdefgghijN   ",
"   klm&n>'opq   ",
"   8rn]Ps^tuZ   ",
"   vwkM  Oxwy   ",
"   S<      <k   "};