/* XPM */ 
static const char * green_xpm[] = {
"20 20 109 2",
"  	c None",
"! 	c black",
"# 	c #00D000",
"$ 	c #00CE00",
"% 	c #00CC00",
"& 	c #00CA00",
"' 	c #00C900",
"( 	c #00C800",
") 	c #00CF00",
"* 	c #07D107",
"+ 	c #0DD20D",
", 	c #04D104",
"- 	c #00C300",
". 	c #10D310",
"0 	c #38DB38",
"1 	c #7CE77C",
"2 	c #89E989",
"3 	c #7BE77B",
"4 	c #4BDE4B",
"5 	c #00C700",
"6 	c #00BF00",
"7 	c #00B900",
"8 	c #1FD61F",
"9 	c #63E263",
": 	c #A7EFA7",
"; 	c #B1F1B1",
"< 	c #A4EEA4",
"= 	c #78E678",
"> 	c #24D724",
"? 	c #00C000",
"@ 	c #00B700",
"A 	c #00B300",
"B 	c #00C500",
"C 	c #00CB00",
"D 	c #4EDF4E",
"E 	c #9CED9C",
"F 	c #BAF2BA",
"G 	c #AEF0AE",
"H 	c #9DED9D",
"I 	c #7AE77A",
"J 	c #3CDB3C",
"K 	c #00B200",
"L 	c #00B100",
"M 	c #54E054",
"N 	c #B4F1B4",
"O 	c #8FEB8F",
"P 	c #72E572",
"Q 	c #62E262",
"R 	c #3EDC3E",
"S 	c #1ED61E",
"T 	c #00BC00",
"U 	c #00A900",
"V 	c #48DD48",
"W 	c #90EB90",
"X 	c #5FE25F",
"Y 	c #34DA34",
"Z 	c #18D518",
"[ 	c #05D105",
"] 	c #00BB00",
"^ 	c #00A200",
"_ 	c #00AE00",
"` 	c #00BD00",
"a 	c #00C400",
"b 	c #00CD00",
"c 	c #009C00",
"d 	c #00A300",
"e 	c #00BA00",
"f 	c #00C200",
"g 	c #17D417",
"h 	c #12D312",
"i 	c #00B600",
"j 	c #00AB00",
"k 	c #009D00",
"l 	c #2AD82A",
"m 	c #4CDE4C",
"n 	c #51DF51",
"o 	c #4DDE4D",
"p 	c #00A500",
"q 	c #009600",
"r 	c #00A600",
"s 	c #00BE00",
"t 	c #00B800",
"u 	c #00AF00",
"v 	c #00A000",
"w 	c #009300",
"x 	c #008900",
"y 	c #00B400",
"z 	c #00A700",
"{ 	c #00AC00",
"| 	c #00A100",
"} 	c #009400",
"~ 	c #008B00",
" !	c #00AD00",
"!!	c #00AA00",
"#!	c #009A00",
"$!	c #009000",
"%!	c #008A00",
"&!	c #008700",
"'!	c #009800",
"(!	c #009900",
")!	c #009B00",
"*!	c #008C00",
"+!	c #008600",
",!	c #008800",
"-!	c #009200",
".!	c #008E00",
"0!	c #008500",
"1!	c #009100",
"2!	c #00A400",
"                                        ",
"                # # # #                 ",
"            # $ % & ' ( & #             ",
"        # # ) * + , $ ' - - % #         ",
"      # , . 0 1 2 3 4 ) 5 6 7 - #       ",
"      ) $ 8 9 : ; < = > % ? @ A B       ",
"    ) C $ D E F G H I J ) - 7 K L )     ",
"    C & ) M N ; O P Q R S ( T A U 6     ",
"  # 5 & $ V W X Y Z , , [ ( ] L ^ _ #   ",
"  # ] ` a & b ' ' ' ( ( B 6 K U c d #   ",
"  # e ] f % g Z S h # ) $ - i j k ^ #   ",
"  # ` 7 ? & l m n o 0 + $ f K p q r #   ",
"    s _ K t ? a ' & ' a T u v w x y     ",
"    % z p U u i ] T ] i { | } ~ w $     ",
"      ] v | p U  !_ !!p #!$!%!&!@       ",
"      # K '!'!(!c )!'!w *!+!,!_ #       ",
"        # 6 c w -!.!%!&!0!1!6 #         ",
"            b i 2!k k | A #             ",
"                # # #                   ",
"                                        "};
