/* XPM */ 
static const char * message_xpm[] = {
"20 20 8 1",
" 	c None",
"!	c black",
"#	c #007E7E",
"$	c #7F7F7F",
"%	c #FFFE00",
"&	c white",
"'	c #00007E",
"(	c #7F7E00",
"                    ",
"                    ",
"                    ",
"         !!!        ",
"        !!#!        ",
"        !!#!        ",
"  !!!!!!!!#!!!!!!!  ",
"  !$%&%&%!'!%&%&%!  ",
"  !(&%&%&!#!&%&%&!  ",
"  !$%&%&%!!!%&%&%!  ",
"  !(&%&%&%&%&%&%&!  ",
"  !$!!!!%&!!!!!!%!  ",
"  !(&%&%&%&%&%&%&!  ",
"  !$!!!&!!!!%!!!%!  ",
"  !(&%&%&%&%&%&%&!  ",
"  !$($($($($($($(!  ",
"  !!!!!!!!!!!!!!!!  ",
"                    ",
"                    ",
"                    "};
