/* XPM */ 
static const char * offline_xpm[] = {
"20 20 119 2",
"  	c None",
"! 	c black",
"# 	c #0000FF",
"$ 	c #0000FD",
"% 	c #0000FA",
"& 	c #0000F7",
"' 	c #0000F6",
"( 	c #0000F8",
") 	c #0000FE",
"* 	c #0707FF",
"+ 	c #0D0DFF",
", 	c #0404FF",
"- 	c #0000F0",
". 	c #1010FF",
"0 	c #3838FF",
"1 	c #7C7CFF",
"2 	c #8989FF",
"3 	c #7B7BFF",
"4 	c #4B4BFF",
"5 	c #0000F4",
"6 	c #0000EB",
"7 	c #0000E4",
"8 	c #1F1FFF",
"9 	c #6363FF",
": 	c #A7A7FF",
"; 	c #B1B1FF",
"< 	c #A4A4FF",
"= 	c #7878FF",
"> 	c #2424FF",
"? 	c #0000EC",
"@ 	c #0000E1",
"A 	c #0000DD",
"B 	c #0000F2",
"C 	c #4E4EFF",
"D 	c #9C9CFF",
"E 	c #BABAFF",
"F 	c #AEAEFF",
"G 	c #9D9DFF",
"H 	c #7A7AFF",
"I 	c #3C3CFF",
"J 	c #0000DC",
"K 	c #0000DA",
"L 	c #0000F9",
"M 	c #5454FF",
"N 	c #B4B4FF",
"O 	c #8F8FFF",
"P 	c #7272FF",
"Q 	c #6262FF",
"R 	c #3E3EFF",
"S 	c #1E1EFF",
"T 	c #0000F5",
"U 	c #0000E8",
"V 	c #0000D0",
"W 	c #4848FF",
"X 	c #9090FF",
"Y 	c #5F5FFF",
"Z 	c #3434FF",
"[ 	c #1818FF",
"] 	c #0505FF",
"^ 	c #0000E6",
"_ 	c #0000C8",
"` 	c #0000D7",
"a 	c #0000E7",
"b 	c #0000E9",
"c 	c #0000F1",
"d 	c #0000FB",
"e 	c #0000F3",
"f 	c #0000DB",
"g 	c #0000BF",
"h 	c #0000C9",
"i 	c #0000EF",
"j 	c #1717FF",
"k 	c #1212FF",
"l 	c #0000FC",
"m 	c #0000E0",
"n 	c #0000D3",
"o 	c #0000C1",
"p 	c #2A2AFF",
"q 	c #4C4CFF",
"r 	c #5151FF",
"s 	c #4D4DFF",
"t 	c #0000CB",
"u 	c #0000B8",
"v 	c #0000CD",
"w 	c #0000EA",
"x 	c #0000E3",
"y 	c #0000ED",
"z 	c #0000D8",
"{ 	c #0000C4",
"| 	c #0000B4",
"} 	c #0000A8",
"~ 	c #0000DE",
" !	c #0000CE",
"!!	c #0000D4",
"#!	c #0000C5",
"$!	c #0000B6",
"%!	c #0000AB",
"&!	c #0000D1",
"'!	c #0000D5",
"(!	c #0000D6",
")!	c #0000D2",
"*!	c #0000BD",
"+!	c #0000B1",
",!	c #0000AA",
"-!	c #0000A6",
".!	c #0000E2",
"0!	c #0000BB",
"1!	c #0000BA",
"2!	c #0000BC",
"3!	c #0000BE",
"4!	c #0000B5",
"5!	c #0000AC",
"6!	c #0000A5",
"7!	c #0000B3",
"8!	c #0000AE",
"9!	c #0000A9",
":!	c #0000A3",
";!	c #0000B2",
"<!	c #0000CA",
"                                        ",
"                # # # #                 ",
"            # $ % & ' ' ( #             ",
"        # # ) * + , $ & - - % #         ",
"      # , . 0 1 2 3 4 ) 5 6 7 - #       ",
"      ) $ 8 9 : ; < = > % ? @ A B       ",
"    ) % $ C D E F G H I ) - 7 J K )     ",
"    L ( ) M N ; O P Q R S T U A V 6     ",
"  # 5 ( $ W X Y Z [ , , ] T ^ K _ ` #   ",
"  # a b c ( d & & & T T e 6 f V g h #   ",
"  # 7 ^ i % j [ S k # ) l - m n o _ #   ",
"  # b 7 ? ( p q r s 0 + l i J t u v #   ",
"    w ` f x y B ' ( & B U z { | } ~     ",
"    %  !t V z m ^ U ^ m !!#!$!%!| $     ",
"      a { #!t &!'!(!)!t *!+!,!-!.!      ",
"      # f 0!1!2!g 3!1!4!5!6!-!(!#       ",
"        # 6 g 4!7!8!9!-!:!;!? #         ",
"            l m <!o o _ A #             ",
"                # # #                   ",
"                                        "};
