/* XPM */ 
static const char * online_xpm[] = {
"20 20 97 2",
"  	c None",
"! 	c black",
"# 	c #EAEB11",
"$ 	c #E8E912",
"% 	c #E7E812",
"& 	c #E5E612",
"' 	c #E3E412",
"( 	c #E2E312",
") 	c #E9EA11",
"* 	c #EBEC17",
"+ 	c #EBEC1C",
", 	c #EBEC14",
"- 	c #DFE013",
". 	c #ECED20",
"0 	c #EFF046",
"1 	c #F5F584",
"2 	c #F5F590",
"3 	c #F0F157",
"4 	c #E1E212",
"5 	c #DBDC13",
"6 	c #D5D613",
"7 	c #EDEE2E",
"8 	c #F1F26D",
"9 	c #F8F8AD",
": 	c #F9F9B6",
"; 	c #F8F8A9",
"< 	c #F4F481",
"= 	c #EDEE32",
"> 	c #DCDD13",
"? 	c #D4D513",
"@ 	c #CFD013",
"A 	c #E0E112",
"B 	c #E6E712",
"C 	c #F1F25A",
"D 	c #F8F8A3",
"E 	c #F9F9BE",
"F 	c #F8F8B3",
"G 	c #F5F583",
"H 	c #EEEF49",
"I 	c #CECF13",
"J 	c #CDCE13",
"K 	c #F1F25F",
"L 	c #F9F9B9",
"M 	c #F7F797",
"N 	c #F4F47C",
"O 	c #F1F26C",
"P 	c #EFF04B",
"Q 	c #EDEE2D",
"R 	c #D8D913",
"S 	c #C5C714",
"T 	c #EFF054",
"U 	c #F1F26A",
"V 	c #EFF042",
"W 	c #ECED27",
"X 	c #EBEC15",
"Y 	c #D7D813",
"Z 	c #BFC015",
"[ 	c #CBCC14",
"] 	c #D9DA13",
"^ 	c #B9BA15",
"_ 	c #C0C115",
"` 	c #D6D713",
"a 	c #DEDF13",
"b 	c #EBEC26",
"c 	c #ECED21",
"d 	c #D3D413",
"e 	c #C8C914",
"f 	c #EEEF39",
"g 	c #F0F159",
"h 	c #F1F25D",
"i 	c #C1C215",
"j 	c #B2B316",
"k 	c #C2C314",
"l 	c #CCCD13",
"m 	c #BDBE15",
"n 	c #B0B116",
"o 	c #A6A717",
"p 	c #D0D113",
"q 	c #C3C414",
"r 	c #C9CA14",
"s 	c #BEBF15",
"t 	c #B1B216",
"u 	c #A8A917",
"v 	c #CACB14",
"w 	c #B7B816",
"x 	c #ADAE17",
"y 	c #A7A817",
"z 	c #A5A617",
"{ 	c #B5B616",
"| 	c #B6B716",
"} 	c #B8B915",
"~ 	c #AAAB17",
" !	c #A4A517",
"!!	c #AFB016",
"#!	c #ACAD17",
"$!	c #A3A418",
"%!	c #AEAF16",
"                                        ",
"                # # # #                 ",
"            # $ % & ' ( & #             ",
"        # # ) * + , $ ' - - % #         ",
"      # , . 0 1 2 1 3 ) 4 5 6 - #       ",
"      ) $ 7 8 9 : ; < = % > ? @ A       ",
"    ) B $ C D E F D G H ) - 6 I J )     ",
"    B & ) K L : M N O P Q ( R @ S 5     ",
"  # 4 & $ T M U V W , , X ( Y J Z [ #   ",
"  # Y ] A & % ' ' ' ( ( A 5 I S ^ _ #   ",
"  # ` Y a % b W Q c # ) $ - d e ^ Z #   ",
"  # ] 6 > & f g h g 0 + $ a I i j k #   ",
"    5 [ I ? > A ' & ' A R l m n o p     ",
"    % q i S l d Y R Y d r s t u n $     ",
"      Y m s i S v [ e i w x y z ?       ",
"      # I { { | ^ } { n ~  !o [ #       ",
"        # 5 ^ n !!#!y z $!%!5 #         ",
"            % d _ ^ ^ s @ #             ",
"                # # #                   ",
"                                        "};
